<?xml version="1.0" encoding="UTF-8"?>
<!DOCTYPE svg PUBLIC "-//W3C//DTD SVG 1.1//EN" "http://www.w3.org/Graphics/SVG/1.1/DTD/svg11.dtd">
<svg xmlns="http://www.w3.org/2000/svg" xml:space="preserve" width="72.1972mm" height="11.4552mm" version="1.1"
     style="shape-rendering:geometricPrecision; text-rendering:geometricPrecision; image-rendering:optimizeQuality; fill-rule:evenodd; clip-rule:evenodd"
     viewBox="0 0 7257.56 1151.52"
     xmlns:xlink="http://www.w3.org/1999/xlink">
 <defs>
  <style type="text/css">
   <![CDATA[
    .fil0 {fill:url(#id0);fill-rule:nonzero}
   ]]>
  </style>
     <linearGradient id="id0" gradientUnits="userSpaceOnUse" x1="2653.48" y1="-1071.3" x2="4604.07" y2="2222.82">
   <stop offset="0" style="stop-opacity:1; stop-color:#0099DD"/>
         <stop offset="0.3" style="stop-opacity:1; stop-color:#0099DD"/>
         <stop offset="1" style="stop-opacity:1; stop-color:#00AA44"/>
  </linearGradient>
 </defs>
    <g id="Vrstva_x0020_1">
  <path class="fil0"
        d="M673.22 606.25c0,110.08 -26.95,192.93 -81.14,248.53 -53.61,55.32 -125.67,83.12 -216.17,83.12 -19.01,0 -39.44,-0.85 -61.28,-2.55 -21.84,-1.98 -40.57,-4.53 -56.75,-8.22l0 -644.56c18.45,-2.83 37.16,-4.83 56.17,-6.24 19.01,-1.42 38.87,-1.99 59.58,-1.99 59.01,0 110.93,12.2 155.75,36.6 44.82,24.4 80,61 105.53,109.51 25.53,48.79 38.3,110.65 38.3,185.81zm266.67 -3.68c0,-122.27 -24.4,-222.98 -73.19,-302.14 -48.51,-79.15 -116.32,-138.44 -203.41,-177.31 -86.8,-39.44 -188.37,-59.01 -304.69,-59.01 -43.41,0 -91.35,2.27 -143.27,6.81 -52.2,4.83 -101,14.48 -146.39,29.22 -20.71,7.66 -37.45,17.31 -50.21,29.5 -12.49,12.2 -18.73,29.5 -18.73,52.48l0 813.93c0,53.62 29.22,91.35 87.95,113.19 44.54,16.17 93.91,26.67 148.37,31.49 54.76,4.83 101.01,7.38 139.01,7.38 113.2,0 212.21,-20.15 296.47,-60.14 84.82,-40.01 150.64,-100.43 197.45,-181.29 47.1,-80.86 70.64,-182.14 70.64,-304.13zm166.26 201.42l0 -122.56 252.2 0 0 121.14c0,51.92 13.34,89.65 40.29,112.92 27.23,22.98 64.97,34.61 112.91,34.61 30.93,0 56.46,-2.84 76.89,-8.8 20.71,-5.96 36.03,-11.63 46.52,-17.59l0 -242.28 252.77 0 0 273.49c0,27.24 -5.39,50.5 -15.89,69.79 -10.49,19.57 -27.51,36.32 -51.35,50.78 -36.31,22.41 -81.13,40.28 -134.18,53.62 -53.05,13.33 -111.77,19.85 -176.18,19.85 -80.29,0 -150.65,-11.91 -211.64,-35.75 -60.99,-24.11 -108.36,-61.28 -142.13,-112.05 -33.47,-50.78 -50.21,-116.32 -50.21,-197.18zm781.58 -45.67l-252.77 0 0 -449.66c11.07,-3.12 26.67,-6.24 47.1,-9.36 20.43,-3.41 42.55,-5.11 66.38,-5.11 49.08,0 84.54,8.22 106.38,24.97 21.84,16.74 32.91,47.94 32.91,93.9l0 345.26zm-529.38 0l-252.2 0 0 -449.66c10.78,-3.12 26.39,-6.24 46.81,-9.36 20.71,-3.41 42.83,-5.11 66.95,-5.11 48.79,0 83.98,8.22 105.54,24.97 21.84,16.74 32.9,47.94 32.9,93.9l0 345.26zm1550.4 -44.26c0,89.08 -17.58,166.25 -53.04,231.5 -35.46,64.69 -85.68,114.9 -150.36,150.36 -64.69,35.46 -140.71,53.05 -228.38,53.05 -86.53,0 -162.56,-17.3 -227.53,-52.19 -64.97,-34.9 -115.18,-85.11 -150.93,-150.08 -35.46,-64.97 -53.34,-142.7 -53.34,-232.63 0,-89.08 18.15,-165.96 54.19,-230.36 36.31,-64.4 86.81,-114.61 151.77,-150.07 64.97,-35.46 140.72,-53.06 226.68,-53.06 85.96,0 161.14,17.87 225.83,53.62 64.68,35.75 115.18,86.25 151.21,151.22 36.02,64.97 53.89,140.99 53.89,228.65zm-431.78 -234.61c-53.34,0 -95.61,20.43 -126.53,61.56 -30.92,41.13 -46.52,98.72 -46.52,173.05 0,76.32 15.32,134.75 45.67,175.32 30.36,40.57 72.92,60.72 127.38,60.72 54.76,0 97.31,-20.43 127.67,-61.57 30.36,-41.13 45.68,-99.29 45.68,-174.47 0,-73.48 -15.32,-131.07 -45.96,-172.2 -30.92,-41.71 -73.19,-62.42 -127.38,-62.42zm1409.41 -247.67c0,24.97 -6.81,47.38 -20.13,66.96 -13.62,19.57 -29.22,34.89 -46.53,45.67 -28.65,-19.29 -60.71,-36.31 -96.17,-51.07 -35.46,-14.47 -77.74,-21.84 -126.81,-21.84 -60.44,0 -112.64,13.05 -156.61,39.44 -43.69,25.81 -77.45,64.11 -101.28,114.34 -23.55,49.65 -35.46,110.36 -35.46,181.84 0,109.51 27.51,192.63 82.27,249.09 54.76,56.45 129.66,84.54 224.13,84.54 49.65,0 91.92,-6.81 127.09,-20.13 35.18,-13.62 67.52,-28.94 96.74,-46.25 17.31,12.2 31.21,28.38 41.71,48.51 10.78,20.15 16.16,43.12 16.16,69.51 0,22.41 -5.95,43.41 -17.87,62.42 -11.63,19.01 -31.77,35.45 -60.14,49.08 -21.84,11.07 -52.48,21.56 -91.92,31.78 -39.43,10.49 -87.66,15.88 -144.97,15.88 -100.43,0 -191.5,-19.57 -273.2,-58.43 -81.71,-39.15 -146.67,-98.73 -194.91,-178.73 -48.22,-80.29 -72.34,-182.7 -72.34,-307.25 0,-118.3 23.54,-217.88 70.64,-298.73 47.38,-81.13 111.21,-142.7 190.93,-184.4 79.73,-42.27 167.39,-63.27 262.99,-63.27 67.52,0 125.69,7.66 174.2,23.26 48.79,15.04 86.24,35.75 112.06,61.57 26.38,25.24 39.43,54.18 39.43,86.24zm495.61 917.76c-116.03,0 -208.8,-22.42 -277.74,-67.52 -68.65,-45.11 -102.98,-112.35 -102.98,-202.27 0,-77.45 23.83,-136.74 71.48,-177.89 47.66,-41.13 118.59,-66.67 213.06,-76.31l227.53 -24.12 0 -20.43c0,-38.58 -15.04,-66.38 -45.4,-83.11 -30.35,-17.31 -72.91,-25.82 -127.95,-25.82 -43.41,0 -85.96,5.11 -127.67,15.32 -41.7,9.93 -78.86,22.14 -111.77,36.6 -13.34,-9.65 -24.69,-23.83 -34.61,-42.27 -9.37,-18.45 -13.9,-37.74 -13.9,-57.87 0,-48.51 26.1,-83.13 78.02,-104.4 32.06,-13.34 70.08,-22.98 113.76,-29.5 43.97,-6.24 86.24,-9.37 127.38,-9.37 117.73,0 211.63,24.4 282,73.48 70.36,49.08 105.53,125.39 105.53,229.51l0 386.68c0,28.38 -7.38,51.36 -22.41,68.66 -14.48,17.31 -32.91,32.63 -54.76,45.68 -34.05,20.15 -76.32,35.75 -127.1,47.38 -50.49,11.63 -108.08,17.59 -172.49,17.59zm0 -187.53c26.39,0 51.92,-2.55 76.88,-7.94 25.25,-5.39 43.7,-11.92 55.61,-19.01l0 -162.85 -143.84 13.34c-38.3,2.55 -68.66,10.78 -91.06,24.68 -22.13,13.62 -33.19,34.05 -33.19,61.28 0,27.52 10.78,49.37 32.06,66.1 21.28,16.17 55.89,24.4 103.55,24.4zm823.28 -436.32l0 211.91 -252.19 0 0 -243.12c0,-31.21 7.66,-57.87 23.26,-80.29 15.6,-22.42 36.88,-41.99 63.83,-59.29 37.45,-22.7 82.56,-40.57 135.04,-53.34 53.04,-12.77 108.65,-19.29 166.8,-19.29 115.75,0 173.63,38.58 173.63,115.74 0,18.16 -2.55,35.18 -7.94,50.78 -4.83,15.89 -11.06,29.22 -18.72,40.29 -11.35,-2.27 -25.25,-3.97 -41.99,-5.4 -16.17,-1.7 -33.77,-2.55 -52.78,-2.55 -34.04,0 -68.08,3.98 -101.84,12.2 -33.77,7.66 -62.71,18.44 -87.1,32.34zm-252.19 148.08l252.19 4.54 0 442.57c-10.77,3.13 -26.37,6.24 -47.09,9.37 -20.13,3.4 -42.27,5.11 -66.09,5.11 -47.95,0 -83.41,-8.51 -105.82,-25.25 -22.13,-17.31 -33.19,-48.23 -33.19,-93.34l0 -343zm1189.54 247.67l0 -512.91 251.63 0 0 544.69c0,26.95 -5.67,49.65 -17.3,68.38 -11.35,18.44 -29.21,35.45 -53.89,50.49 -30.36,20.15 -70.65,37.74 -120.58,53.34 -49.65,15.6 -106.38,23.54 -170.22,23.54 -94.75,0 -176.46,-15.88 -244.84,-47.66 -68.37,-32.06 -121.14,-80.01 -158.02,-143.84 -36.87,-64.4 -55.32,-144.11 -55.32,-239.72 0,-99.86 18.73,-181.85 56.17,-245.96 37.74,-64.4 88.8,-112.35 153.48,-143.84 64.69,-31.48 136.46,-47.38 215.61,-47.38 40.57,0 76.88,4.54 108.94,13.62 32.07,9.08 58.16,19.57 78.03,31.49l0 209.08c-16.17,-13.89 -37.46,-26.38 -63.55,-37.73 -25.81,-11.63 -55.61,-17.59 -89.37,-17.59 -40.57,0 -76.04,8.51 -106.68,25.53 -30.64,16.74 -54.46,42.84 -71.21,78.01 -16.74,34.9 -25.24,80.29 -25.24,135.61 0,78.87 17.58,137.03 53.05,174.48 35.75,37.16 84.83,55.61 147.25,55.61 24.96,0 47.09,-2.84 66.09,-8.8 19.01,-5.96 34.33,-12.2 45.96,-18.45zm251.63 -463.56l-252.77 0.57 0 -443.99c10.79,-3.12 26.39,-6.24 46.81,-9.36 20.71,-3.41 43.12,-5.11 66.67,-5.11 49.37,0 84.83,8.22 106.38,24.96 21.84,16.74 32.9,47.67 32.9,93.34l0 339.59zm863.3 427.25c0,82.84 -31.2,147.81 -93.62,194.9 -62.42,46.81 -153.2,70.37 -272.07,70.37 -93.91,0 -171.07,-13.62 -231.22,-41.14 -60.14,-27.79 -90.22,-67.8 -90.22,-120.29 0,-24.12 5.11,-44.82 15.32,-62.7 10.49,-17.87 23.55,-31.78 39.15,-42.27 32.34,18.73 69.5,35.75 111.77,51.07 42.28,15.04 90.78,22.41 145.54,22.41 83.7,0 125.4,-23.54 125.4,-70.92 0,-20.15 -7.66,-36.03 -22.7,-47.95 -15.04,-11.91 -39.15,-21.27 -72.91,-27.79l-72.63 -16.74c-91.06,-18.73 -158.59,-48.23 -203.13,-88.8 -44.54,-40.57 -66.96,-96.17 -66.96,-166.81 0,-78.86 32.06,-141.85 96.46,-188.65 64.4,-47.1 150.65,-70.65 259.3,-70.65 54.76,0 104.4,5.39 148.66,16.17 44.54,11.07 80.01,27.23 106.1,49.08 25.82,21.84 38.87,49.37 38.87,82 0,22.41 -4.54,42.55 -13.62,59.85 -9.08,17.31 -20.71,31.21 -34.89,42.28 -12.77,-8.23 -31.78,-16.75 -57.31,-25.25 -25.25,-8.51 -52.77,-15.89 -83.12,-22.14 -29.79,-5.95 -58.16,-9.08 -84.54,-9.08 -40.29,0 -72.07,5.68 -95.05,16.74 -22.7,11.07 -34.04,27.52 -34.04,49.65 0,15.61 6.23,28.66 19,39.14 13.06,10.49 36.32,19.57 69.51,26.95l68.66 15.89c101,23.26 173.63,56.17 217.59,99.01 44.54,42.55 66.67,97.88 66.67,165.68z"/>
 </g>
</svg>
